<svg xmlns="http://www.w3.org/2000/svg" width="800" height="600" viewBox="0 0 800 600">
  <style>
    .primary { fill: #4A7AFF; }
    .secondary { fill: #2E5BFF; }
    .accent { fill: #FFD700; }
    .light { fill: #F0F4FF; }
    .dark { fill: #1E3A8A; }
  </style>
  
  <!-- Background -->
  <rect width="800" height="600" rx="20" ry="20" class="light" />
  
  <!-- Restaurant building -->
  <rect x="200" y="200" width="400" height="250" rx="10" ry="10" class="primary" />
  
  <!-- Windows -->
  <rect x="250" y="250" width="80" height="80" rx="5" ry="5" class="light" />
  <rect x="360" y="250" width="80" height="80" rx="5" ry="5" class="light" />
  <rect x="470" y="250" width="80" height="80" rx="5" ry="5" class="light" />
  
  <!-- Door -->
  <rect x="350" y="350" width="100" height="100" rx="5" ry="5" class="secondary" />
  <rect x="390" y="390" width="20" height="20" rx="10" ry="10" class="accent" />
  
  <!-- Roof -->
  <polygon points="180,200 400,120 620,200" class="dark" />
  
  <!-- Sign -->
  <rect x="300" y="150" width="200" height="40" rx="5" ry="5" class="accent" />
  
  <!-- Cutlery icons -->
  <g transform="translate(280, 400)">
    <!-- Fork -->
    <rect x="0" y="0" width="10" height="60" rx="5" ry="5" class="accent" />
    <rect x="0" y="0" width="30" height="10" rx="5" ry="5" class="accent" />
    <rect x="10" y="0" width="10" height="30" rx="5" ry="5" class="accent" />
    <rect x="20" y="0" width="10" height="30" rx="5" ry="5" class="accent" />
  </g>
  
  <g transform="translate(490, 400)">
    <!-- Knife -->
    <polygon points="0,0 30,0 30,10 15,60 0,60" class="accent" />
  </g>
</svg> 